<?xml version="1.0" standalone="no"?>
<svg
  width="600"
  height="600"
  viewBox="0 0 600 600"
  xmlns="http://www.w3.org/2000/svg"
>
  <g transform="translate(300,300)">
    <path d="M145.8,-167.2C179.2,-145.6,190.1,-90.5,184.1,-44.3C178.1,1.9,155.3,39.2,138.5,91C121.7,142.8,111,209.1,73.5,238.6C36,268.1,-28.2,260.9,-62.3,225.1C-96.5,189.3,-100.6,124.9,-124.5,75.7C-148.3,26.5,-191.8,-7.5,-205.1,-54.2C-218.4,-101,-201.4,-160.4,-162.2,-181C-123,-201.6,-61.5,-183.3,-2.7,-180.1C56.1,-176.9,112.3,-188.8,145.8,-167.2Z" fill="#1db954" />
  </g>
</svg>
  