<?xml version="1.0" standalone="no"?>
<svg
  width="600"
  height="600"
  viewBox="0 0 600 600"
  xmlns="http://www.w3.org/2000/svg"
>
  <g transform="translate(300,300)">
    <path d="M79.4,-97C101.4,-76.2,116.7,-49.7,140.4,-10.6C164.2,28.5,196.4,80.2,182.2,105.4C167.9,130.6,107.2,129.2,52.6,152.5C-1.9,175.7,-50.4,223.6,-83.1,216.8C-115.8,209.9,-132.8,148.2,-158.5,95.5C-184.2,42.8,-218.7,-0.9,-208.2,-32.6C-197.7,-64.2,-142.2,-83.8,-100,-101C-57.9,-118.3,-28.9,-133.1,-0.1,-133C28.7,-132.9,57.4,-117.8,79.4,-97Z" fill="#1db954" />
  </g>
</svg>
  