<?xml version="1.0" standalone="no"?><svg xmlns="http://www.w3.org/2000/svg" viewBox="0 0 1440 320"><path fill="#1db954" fill-opacity="3" d="M0,288L24,288C48,288,96,288,144,245.3C192,203,240,117,288,106.7C336,96,384,160,432,202.7C480,245,528,267,576,229.3C624,192,672,96,720,101.3C768,107,816,213,864,250.7C912,288,960,256,1008,234.7C1056,213,1104,203,1152,208C1200,213,1248,235,1296,224C1344,213,1392,171,1416,149.3L1440,128L1440,320L1416,320C1392,320,1344,320,1296,320C1248,320,1200,320,1152,320C1104,320,1056,320,1008,320C960,320,912,320,864,320C816,320,768,320,720,320C672,320,624,320,576,320C528,320,480,320,432,320C384,320,336,320,288,320C240,320,192,320,144,320C96,320,48,320,24,320L0,320Z"></path></svg>